<svg xmlns="http://www.w3.org/2000/svg" xmlns:xlink="http://www.w3.org/1999/xlink" viewBox="0 0 804.99 346.26"><defs><style>.cls-1{fill:url(#New_Gradient_Swatch);}.cls-2{fill:url(#New_Gradient_Swatch-2);}.cls-3{fill:url(#New_Gradient_Swatch-3);}.cls-4{fill:url(#New_Gradient_Swatch-4);}.cls-5{fill:#fff;}</style><linearGradient id="New_Gradient_Swatch" x1="295.91" y1="216.25" x2="508.78" y2="216.25" gradientUnits="userSpaceOnUse"><stop offset="0" stop-color="#eddbac"/><stop offset="0.52" stop-color="#e0bc5d"/><stop offset="1" stop-color="#bc9557"/></linearGradient><linearGradient id="New_Gradient_Swatch-2" x1="300.07" y1="307.57" x2="503.64" y2="307.57" xlink:href="#New_Gradient_Swatch"/><linearGradient id="New_Gradient_Swatch-3" x1="320.26" y1="188.2" x2="384.33" y2="188.2" xlink:href="#New_Gradient_Swatch"/><linearGradient id="New_Gradient_Swatch-4" x1="419.79" y1="187.37" x2="484.5" y2="187.37" xlink:href="#New_Gradient_Swatch"/></defs><g id="Layer_2" data-name="Layer 2"><g id="Layer_1-2" data-name="Layer 1"><path class="cls-1" d="M508.78,157.58c-1.82,1.12-3.72,2.34-5.79,3.72-3.73,2.48-8.38,5.58-13.32,9.1l-.11.08A111.93,111.93,0,0,0,412,128.72v189l-9.61,9.61-2.22-2.21-8.21-8.23V128.72a111.92,111.92,0,0,0-76.74,40.66l-.14-.1c-4.75-3.37-9.14-6.29-12.66-8.63-2.19-1.47-4.31-2.83-6.46-4.14a135.2,135.2,0,0,1,212.87,1.07Z"/><path class="cls-2" d="M503.64,269.78a105.87,105.87,0,0,1-203.57-.51,70.43,70.43,0,0,1,17.65.34l1.5.25a88,88,0,0,0,55.56,54.05c1.27.42,2.55.8,3.84,1.15a88.37,88.37,0,0,0,47.9-.36c1.38-.41,2.76-.84,4.12-1.31a88,88,0,0,0,53.63-52.52l1.64-.32A68.3,68.3,0,0,1,503.64,269.78Z"/><path class="cls-3" d="M384.33,240.35l-6.55-11.6-4.63-9.17V157.47a87.87,87.87,0,0,0-38.8,26.94c-4.41-3.86-9-7.57-14.09-11.32a105.91,105.91,0,0,1,52.89-34.55,104.41,104.41,0,0,1,11.07-2.48l0,18.36Z"/><path class="cls-4" d="M484.5,174.18c-5.07,3.79-9.67,7.51-14.05,11.38a87.94,87.94,0,0,0-39.47-28V218.2q-2.33,4.52-4.64,9-3.29,5.72-6.55,11.43,0-42.09.09-84.17,0-9.19,0-18.38A107.22,107.22,0,0,1,431,138.61,106,106,0,0,1,484.5,174.18Z"/><path class="cls-5" d="M134,142.11S72.67,145,50.45,94.8,19.22,12.07,0,0C0,0,33.85,6.57,66.8,84.19,89.72,138.2,134,142.11,134,142.11Z"/><path class="cls-5" d="M376.6,317.52C375,284,362.74,263.28,356,253.79a132.47,132.47,0,0,0-15.95-18.23A163.57,163.57,0,0,0,317,216a184,184,0,0,0-15.86-9.68q-2.69-1.47-5.62-3l-1.53-.8c-6.95-3.58-13.26-7-19-10.19-40.77-22.89-53.42-38.12-67.63-63.26a128.48,128.48,0,0,1-14.92-43.89,307.57,307.57,0,0,0,56.45,49.43c22,14.89,28.14,14.87,44.45,24.81,2,1.24,4.25,2.64,6.65,4.25,3.72,2.47,8,5.32,12.59,8.58q2.49,1.78,5.09,3.7c4.55,3.37,9.3,7.13,14.09,11.33,17,14.92,34.32,35.22,42.89,62.56C378.37,261.94,383.62,285.49,376.6,317.52Z"/><path class="cls-5" d="M365.61,298.91c-5-3.61-18.23-27-48.25-31.6a72.91,72.91,0,0,0-18.86-.3c-2,.22-4.11.51-6.26.9a112.26,112.26,0,0,0-18,4.9c-1.43.52-2.84,1-4.24,1.47-58.56,19.36-84.08-8-84.08-8,20.57,5.8,22.15-.73,77.92-22.12l2.07-.75a55,55,0,0,1,23.05-2.8,56.71,56.71,0,0,1,6.29.92,70.86,70.86,0,0,1,18.35,6.59C344.55,264,365.61,298.91,365.61,298.91Z"/><path class="cls-5" d="M332.43,251.18c-2.93-1.61-9-9-18.92-15.31a60.26,60.26,0,0,0-17.45-7.59,57.67,57.67,0,0,0-6.2-1.21,65.7,65.7,0,0,0-23.33,1.1,102.69,102.69,0,0,0-26.44,10.08c-23.28,12.38-37,16.58-48.82,16.81a67.59,67.59,0,0,1-16.86-2A90.06,90.06,0,0,1,137,234.53a80.86,80.86,0,0,0,24.39,3.68c16.36-.1,28.39-5.35,34.73-8,27.94-11.73,53.73-22.56,72.48-22.38l1.46,0A53.13,53.13,0,0,1,292.28,214c1.85.95,3.75,2,5.69,3.26A100.06,100.06,0,0,1,314,230,172.55,172.55,0,0,1,332.43,251.18Z"/><path class="cls-5" d="M261.94,198.9s.16,0,.18,0c.12-.3-6.7-3.51-7.21-3.75-30-14.3-53.17-47.13-53.17-47.13a154.61,154.61,0,0,1-25.38-60.12,269.16,269.16,0,0,1-47.43-11.36A271.7,271.7,0,0,1,52.11,35.78,514.54,514.54,0,0,0,142.29,140S197.76,188.8,261.94,198.9Z"/><path class="cls-5" d="M220.05,202.27s0,0,0,0c.21-.72-13.68-4.81-23.9-9a126.42,126.42,0,0,1-24.05-13.14,97.61,97.61,0,0,1-37,17.24,99.57,99.57,0,0,1-58.24-4.73S143.74,253.66,220.05,202.27Z"/><path class="cls-5" d="M164.39,174.36l0,0c.1-.28-5-2.32-6.24-2.82a96.26,96.26,0,0,1-17.37-9.82A109.44,109.44,0,0,1,129.73,153a50.56,50.56,0,0,1-8.82,1.65C86.33,158,58.23,124.16,50.72,114.54c5.2,11.89,17.43,34.77,42.8,49.84C93.52,164.38,130.67,185.79,164.39,174.36Z"/><path class="cls-5" d="M671,142.11S732.32,145,754.54,94.8,785.78,12.07,805,0c0,0-33.85,6.57-66.79,84.19C715.28,138.2,671,142.11,671,142.11Z"/><path class="cls-5" d="M428.4,317.52C430,284,442.26,263.28,449,253.79a131.84,131.84,0,0,1,15.94-18.23A164.7,164.7,0,0,1,488,216a185.5,185.5,0,0,1,15.86-9.68q2.7-1.47,5.62-3l1.53-.8c7-3.58,13.26-7,19-10.19,40.77-22.89,53.42-38.12,67.64-63.26a128.7,128.7,0,0,0,14.92-43.89,307.57,307.57,0,0,1-56.45,49.43c-22,14.89-28.15,14.87-44.46,24.81-2,1.24-4.24,2.64-6.65,4.25-3.71,2.47-8,5.32-12.59,8.58q-2.49,1.78-5.09,3.7c-4.55,3.37-9.3,7.13-14.08,11.33-17.05,14.92-34.33,35.22-42.89,62.56C426.62,261.94,421.38,285.49,428.4,317.52Z"/><path class="cls-5" d="M439.39,298.91c5-3.61,18.23-27,48.24-31.6a72.91,72.91,0,0,1,18.86-.3c2,.22,4.11.51,6.26.9a112,112,0,0,1,18,4.9c1.43.52,2.85,1,4.24,1.47,58.56,19.36,84.08-8,84.08-8-20.57,5.8-22.14-.73-77.91-22.12-.69-.26-1.38-.51-2.08-.75a55,55,0,0,0-23-2.8,57.41,57.41,0,0,0-6.29.92,70.86,70.86,0,0,0-18.35,6.59C460.45,264,439.39,298.91,439.39,298.91Z"/><path class="cls-5" d="M472.57,251.18c2.92-1.61,8.95-9,18.92-15.31a60.14,60.14,0,0,1,17.45-7.59,57.48,57.48,0,0,1,6.19-1.21,65.68,65.68,0,0,1,23.33,1.1,102.88,102.88,0,0,1,26.45,10.08c23.27,12.38,37,16.58,48.81,16.81a67.69,67.69,0,0,0,16.87-2A90,90,0,0,0,668,234.53a80.79,80.79,0,0,1-24.38,3.68c-16.37-.1-28.4-5.35-34.73-8-27.95-11.73-53.73-22.56-72.49-22.38l-1.46,0A53.1,53.1,0,0,0,512.72,214c-1.86.95-3.76,2-5.7,3.26A99.59,99.59,0,0,0,491,230,171.7,171.7,0,0,0,472.57,251.18Z"/><path class="cls-5" d="M543.05,198.9s-.16,0-.17,0c-.13-.3,6.7-3.51,7.21-3.75,30-14.3,53.16-47.13,53.16-47.13a154.66,154.66,0,0,0,25.39-60.12,269.07,269.07,0,0,0,47.42-11.36,271.78,271.78,0,0,0,76.83-40.75A514.53,514.53,0,0,1,662.7,140S607.24,188.8,543.05,198.9Z"/><path class="cls-5" d="M584.94,202.27l0,0c-.21-.72,13.69-4.81,23.91-9a126.72,126.72,0,0,0,24-13.14,97.47,97.47,0,0,0,37,17.24,99.61,99.61,0,0,0,58.25-4.73S661.26,253.66,584.94,202.27Z"/><path class="cls-5" d="M640.6,174.36l0,0c-.1-.28,5-2.32,6.24-2.82a96.42,96.42,0,0,0,17.38-9.82A109.48,109.48,0,0,0,675.26,153a50.73,50.73,0,0,0,8.82,1.65c34.59,3.32,62.68-30.53,70.19-40.15-5.2,11.89-17.42,34.77-42.8,49.84C711.47,164.38,674.32,185.79,640.6,174.36Z"/></g></g></svg>